<?xml version="1.0" encoding="utf-8"?>
<!-- Generator: Adobe Illustrator 27.5.0, SVG Export Plug-In . SVG Version: 6.00 Build 0)  -->
<svg version="1.1" id="BASE" xmlns="http://www.w3.org/2000/svg" xmlns:xlink="http://www.w3.org/1999/xlink" x="0px" y="0px"
	 viewBox="0 0 2122 2122" style="enable-background:new 0 0 2122 2122;" xml:space="preserve">
<g>
	<path style="fill:#116C65;" d="M1856.921,1114.397c-39.857-41.778-87.041-75.829-137.854-103.486
		c0.857-0.696,1.709-1.397,2.557-2.106c54.833-45.797,88.769-121.392,70.205-190.383c-16.653-61.882-111.82-134.077-176.768-97.852
		c5.135-5.448,9.281-11.561,12.568-18.133c91.241-78.82,159.021-185.412,195.099-302.593c16.5-53.599,61.263-209.449,6.399-241.291
		c-69.167-40.143-205.235-0.794-271.755,27.18c-79.774,33.548-150.335,86.25-211.502,147.664
		c-6.358,6.383-12.615,12.862-18.77,19.422c-16.572,17.664-32.593,36.325-47.401,55.881c-32.379-40.94-79.192-70.119-130.826-72.043
		c-64.04-2.386-161.141,67.183-145.737,139.937c-15.373-27.173-46.848-41.386-77.602-46.769c-11.13-1.949-22.634-2.967-33.678-0.573
		c-16.648,3.611-30.73,14.628-42.668,26.779c-4.348,4.426-8.503,9.068-12.422,13.905c-26.01-22.291-54.363-42.203-83.249-59.949
		c-7.665-4.709-15.406-9.312-23.219-13.796c-75.177-43.147-157.123-75.416-242.915-86.781
		c-71.539-9.477-213.164-11.618-269.325,45.316c-44.548,45.162,39.663,183.731,69.691,231.096
		c48.329,76.231,111.725,142.403,185.205,192.769c1.259,10.428,4.171,21.254,8.98,32.423c12.26,28.479,33.852,51.778,55.649,73.828
		c-46.574,7.209-88.292,40.248-105.98,83.932c-21.393,52.839-9.141,98.695,21.959,131.572
		c-10.391,6.008-20.583,12.285-30.549,18.749c-7.059,4.578-14.06,9.263-20.99,14.057
		c-66.675,46.124-126.888,102.341-170.996,170.214c-36.78,56.597-95.561,175.327-70.077,245.653
		c20.215,55.785,171.102,40.418,223.177,34.114c82.946-10.041,163.505-36.504,235.039-77.556
		c-24.419,73.579-38.278,150.93-33.969,228.182c3.758,67.393,26.468,197.916,88.576,239.605
		c49.265,33.068,161.931-68.465,200.226-104.314c67.776-63.45,121.199-141.522,154.397-226.801
		c25.682-17.023,47.899-42.46,63.637-68.841c34.047-57.073,52.303-121.079,62.261-187.098c0.993,0.664,2.102,0.966,3.203,0.963
		c16.091,58.374,42.117,114.468,85.037,156.618c50.973,50.058,129.541,76.386,196.368,51.119
		c59.942-22.664,122.417-124.476,79.973-185.543c24.718,19.073,59.243,19.951,89.674,12.972
		c11.013-2.526,22.011-6.054,31.258-12.549c4.3-3.02,8.099-6.596,11.485-10.56c36.93,4.503,74.399,5.566,111.721,3.132
		c49.729-3.243,193.31-15.346,202.406-70.977C1976.883,1261.351,1901.184,1160.795,1856.921,1114.397z"/>
	<g>
		<path style="fill:#084F4A;" d="M751.66,1155.145c-1.895,0.082-3.808,0.222-5.745,0.432c-10.81,1.172-21.538,2.682-32.241,4.598
			c-20.175,3.614-40.042,8.584-59.746,14.208c-39.728,11.341-78.52,25.779-116.182,42.749
			c-74.19,33.432-144.694,78.655-205.293,133.056c-16.948,15.214-33.259,31.136-48.863,47.725
			c-7.717,8.203-15.295,16.487-22.26,25.341c-3.862,4.909-7.917,9.766-11.443,14.926c-3.339,4.883-5.918,10.074-9.433,14.854
			c-5.923,8.055,7.121,17.939,13.802,10.651c6.648-7.251,14.508-13.426,21.512-20.398c7.252-7.22,14.403-14.518,21.599-21.793
			c13.938-14.089,28.399-27.66,43.336-40.685c29.702-25.904,60.836-50.02,93.788-71.661
			c66.302-43.545,138.587-77.826,214.376-100.957c21.182-6.465,42.638-11.699,64.146-16.938c1.569-0.382,3.139-0.757,4.71-1.13
			c7.52-7.29,15.263-14.407,23.149-21.358c0.209-1.85,0.977-3.663,2.457-5.207C746.072,1160.697,748.85,1157.896,751.66,1155.145z"
			/>
		<path style="fill:#084F4A;" d="M683.469,1779.702c-1.378,10.998-2.68,22.009-3.084,33.09c-0.206,5.669-0.62,11.436-0.456,17.108
			c0.177,6.109,1.254,12.021,1.243,18.15c-0.021,11.565,16.366,10.987,17.578,0c0.5-4.544,1.841-8.772,2.773-13.237
			c1.088-5.205,1.707-10.526,2.547-15.785c1.536-9.602,2.851-19.224,4.299-28.838c2.951-19.612,6.636-39.114,11.028-58.454
			c8.803-38.763,19.766-77.002,33.629-114.268c10.509-28.252,22.625-55.975,36.209-82.978c-11.187,1.202-22.935,1.06-34.316,0.006
			c-26.661,56.052-47.297,115.525-59.958,175.857C690.147,1733.298,686.384,1756.441,683.469,1779.702z"/>
		<path style="fill:#084F4A;" d="M1518.951,1083.303c-5.41,0.586-11.156,1.167-17.189,1.723
			c14.753,9.633,29.952,19.937,44.969,30.854c0.159,0.039,0.317,0.077,0.475,0.115c73.626,18.006,143.244,46.108,209.233,83.281
			c18.31,10.315,36.202,21.374,53.605,33.154c8.83,5.977,17.453,12.243,26.306,18.184c9.033,6.063,18.823,11.372,27.484,17.867
			c7.621,5.713,16.961-6.724,10.119-13.115c-7.047-6.582-13.113-13.931-20.387-20.349c-7.505-6.623-15.31-12.771-23.332-18.756
			c-15.49-11.557-31.419-22.524-47.736-32.88c-32.583-20.681-67.082-38.38-102.524-53.618
			c-48.508-20.855-98.613-36.819-149.96-47.733c-2.094,0.258-4.186,0.506-6.279,0.742
			C1522.172,1082.95,1520.577,1083.127,1518.951,1083.303z"/>
		<path style="fill:#084F4A;" d="M1606.041,325.62c18.003-15.047,36.634-29.301,55.857-42.755
			c9.751-6.825,19.698-13.35,29.418-20.217c4.73-3.342,9.627-6.472,14.319-9.859c5.301-3.826,9.866-8.332,15.403-11.833
			c10.308-6.517,1.326-21.523-9.484-16.227c-9.888,4.845-20.215,8.369-30.03,13.534c-9.69,5.098-18.994,10.668-28.219,16.566
			c-18.093,11.569-35.747,23.825-52.923,36.717c-35.207,26.425-68.143,55.802-98.788,87.395
			c-60.925,62.807-112.564,134.462-152.514,212.325c-7.469,14.556-14.687,29.327-21.305,44.339
			c-1.344,10.559-2.998,21.066-4.91,31.478c16.258-18.447,33.573-36.552,51.664-52.87c18.11-35.906,38.703-70.555,61.532-103.66
			C1483.634,441.557,1541.061,379.932,1606.041,325.62z"/>
		<path style="fill:#084F4A;" d="M806.276,658.285c-28.582-32.495-59.577-62.863-92.614-90.814
			c-67.238-56.886-143.485-104.505-224.794-138.513c-22.307-9.329-45.002-17.728-68.011-25.154
			c-11.682-3.771-23.389-7.413-35.365-10.126c-5.658-1.281-11.352-2.724-17.071-3.705c-6.469-1.111-13.012-1.106-19.459-2.341
			c-11.77-2.254-16.694,14.536-4.995,18.121c10.182,3.122,19.919,7.924,29.994,11.525c10.059,3.594,20.146,7.058,30.235,10.567
			c19.534,6.794,38.861,14.243,57.822,22.505c39.076,17.029,77.16,36.234,113.639,58.309c69.971,42.345,133.253,93.51,189.344,153.4
			c28.259,13.224,55.801,29.77,82.122,47.376c0.253,0.168,0.503,0.338,0.754,0.507c-0.033-0.046-0.066-0.094-0.1-0.14
			C834.869,691.903,820.846,674.851,806.276,658.285z"/>
		<path style="fill:#CE5142;" d="M1791.829,818.423c-16.653-61.882-111.82-134.077-176.768-97.852
			c5.135-5.448,9.281-11.561,12.568-18.133c10.419-20.833,12.172-46.283,9.169-69.827c-1.43-11.209-3.858-22.501-9.41-32.342
			c-8.372-14.837-23.058-25.031-38.197-32.844c-28.126-14.516-60.154-22.603-91.618-19.152
			c-42.705,4.683-84.623,31.28-123.046,65.94c-18.09,16.318-35.405,34.423-51.664,52.87c1.911-10.411,3.566-20.919,4.91-31.478
			c7.565-59.492,5.181-120.628-17.783-175.596c-7.623-18.247-17.901-35.638-30.292-51.307
			c-32.379-40.94-79.192-70.119-130.826-72.043c-64.04-2.386-161.141,67.183-145.737,139.937
			c-15.373-27.173-46.848-41.386-77.602-46.769c-11.13-1.949-22.634-2.967-33.678-0.573c-16.648,3.611-30.73,14.628-42.668,26.779
			c-4.348,4.426-8.503,9.068-12.422,13.905c-16.071,19.841-28.131,42.97-32.961,67.956
			c-10.215,52.861,12.812,114.718,44.617,172.417c-0.181-0.122-0.363-0.245-0.545-0.367c-0.251-0.169-0.502-0.339-0.754-0.507
			c-26.321-17.606-53.863-34.152-82.122-47.376c-37.791-17.683-76.862-29.425-116.008-29.815
			c-80.377-0.8-186.617,58.723-176.039,146.347c1.259,10.428,4.171,21.254,8.98,32.423c12.26,28.479,33.852,51.778,55.649,73.828
			c-46.574,7.209-88.292,40.248-105.98,83.932c-21.393,52.839-9.141,98.695,21.959,131.572
			c20.976,22.174,50.522,38.443,84.107,46.965c71.59,18.166,145.825,15.193,219.159,2.869c-1.735,1.637-3.457,3.292-5.167,4.966
			c-2.81,2.75-5.588,5.552-8.332,8.414c-1.48,1.544-2.249,3.357-2.457,5.207c-7.887,6.951-15.63,14.068-23.149,21.358
			c-39.405,38.203-72.61,81.125-87.572,129.61c-13.985,45.32-13.4,97.591,6.115,139.096c4.395,9.346,9.749,18.146,16.113,26.197
			c14.475,18.313,34.173,32.756,59.681,40.947c11.92,3.827,27.036,7.055,42.861,8.521c11.381,1.054,23.129,1.196,34.316-0.006
			c33.781-3.63,62.462-19.52,60.547-59.603c1.771,36.925,3.685,74.563,16.771,109.136c13.087,34.574,39.438,66.211,75.093,75.974
			c30.398,8.324,60.396-0.283,86.746-17.747c25.682-17.023,47.899-42.46,63.637-68.841c34.047-57.073,52.303-121.079,62.261-187.098
			c0.993,0.664,2.102,0.966,3.203,0.963c16.091,58.374,42.117,114.468,85.037,156.618c50.973,50.058,129.541,76.386,196.368,51.119
			c59.942-22.664,122.417-124.476,79.973-185.543c24.718,19.073,59.243,19.951,89.674,12.972
			c11.013-2.526,22.011-6.054,31.258-12.549c4.3-3.02,8.099-6.596,11.485-10.56c7.591-8.889,13.094-19.734,17.44-30.685
			c11.676-29.419,16.57-62.089,10.039-93.058c-12.801-60.703-70.917-115.276-132.037-159.706
			c-15.017-10.917-30.216-21.222-44.969-30.854c6.033-0.556,11.78-1.137,17.189-1.723c1.626-0.176,3.221-0.353,4.784-0.53
			c2.093-0.237,4.185-0.484,6.279-0.742c67.847-8.355,136.179-28.135,189.053-71.12c0.857-0.696,1.709-1.397,2.557-2.106
			C1776.457,963.008,1810.392,887.413,1791.829,818.423z"/>
		<path style="fill:#A74334;" d="M946.382,987.629c-1.491-1.858-3.162-3.605-4.718-5.36c-4.047-4.567-8.039-9.22-12.95-12.876
			c-8.759-6.521-17.947-12.427-27.654-17.421c-20.433-10.514-41.806-19.337-63.55-26.749
			c-42.082-14.346-85.628-23.091-129.547-29.525c-13.191-1.932-26.408-3.696-39.633-5.374c-12.727-1.614-25.26-3.538-38.099-3.194
			c-16.325,0.438-19.783,23.838-3.862,28.532c20.744,6.117,43.036,7.673,64.368,11.243c21.632,3.62,43.115,7.86,64.542,12.541
			c41.306,9.024,82.832,21.184,119.609,39.151c10.687,5.22,21.322,10.692,31.812,16.297c6.02,3.217,12.152,5.562,18.517,7.969
			c5.504,2.083,11.102,5.471,17.151,4.697c0.77-0.098,1.495-0.252,2.173-0.457c0.087-5.193,0.523-10.6,1.334-16.231
			C946.031,989.785,946.203,988.705,946.382,987.629z"/>
		<path style="fill:#A74334;" d="M1031.704,547.334c-0.042,0.02-0.25,0.177-0.674,0.512
			C1031.255,547.669,1031.479,547.499,1031.704,547.334z"/>
		<path style="fill:#A74334;" d="M1109.644,884.354c-1.005-7.779-3.47-15.574-5.58-22.949c-3.138-10.971-6.086-21.996-8.846-33.068
			c-5.534-22.194-9.947-44.584-14.452-66.999c-9.043-44.993-14.444-86.692-17.198-132.7c-0.752-12.569-1.264-25.151-1.541-37.739
			c-0.146-6.719-0.299-13.367-0.814-20.068c-0.352-4.568-0.353-9.251-2.152-13.515c-0.998-2.366-2.294-4.474-4.085-6.357
			c-0.579-0.61-6.594-5.244-3.951-3.113c-6.275-5.056-12.961-5.181-19.32-0.512c0.257-0.122-5.57,4.796-6.21,5.624
			c-3.397,4.396-3.989,9.017-4.416,14.331c-0.509,6.312-0.685,12.563-0.514,18.889c0.308,11.411,0.814,22.817,1.513,34.211
			c1.421,23.187,3.656,46.322,6.677,69.356c6.239,47.574,15.443,94.302,29.182,140.298c3.718,12.453,7.681,24.833,11.882,37.132
			c1.737,5.083,3.486,10.412,5.562,15.601C1086.4,882.482,1097.922,883.023,1109.644,884.354z"/>
		<path style="fill:#A74334;" d="M1272.615,972.81c8.63-9.184,17.703-17.952,27.191-26.246c4.37-3.821,8.824-7.543,13.364-11.161
			c0.497-0.397,0.999-0.788,1.498-1.181c0.124-0.079,2.869-2.194,3.247-2.477c2.74-2.045,5.508-4.054,8.303-6.024
			c11.207-7.902,22.772-15.349,34.694-22.126c6.289-3.575,12.681-6.97,19.164-10.177c3.463-1.713,6.951-3.374,10.464-4.979
			c1.378-0.63,2.758-1.251,4.143-1.863c0.856-0.379,4.279-1.83,3.81-1.647c11.949-4.898,24.142-9.19,36.525-12.853
			c11.04-3.266,22.095-6.521,32.867-10.568c11.849-4.452,27.717-6.726,31.389-20.869c2.666-10.269-4.888-19.477-14.414-22.264
			c-5.52-1.615-12.506-0.692-18.203-0.52c-12.362,0.373-24.36,2.15-36.407,4.938c-27.561,6.381-54.88,18.534-79.843,31.578
			c-25.851,13.509-49.795,30.135-71.931,49.112c-12.368,10.603-24.046,22.003-34.968,34.088
			C1255.845,948.045,1265.877,959.843,1272.615,972.81z"/>
		<path style="fill:#A74334;" d="M1219.719,1111.884c4.622,3.405,9.421,6.61,14.106,10.048c8.832,6.482,17.652,13.022,26.327,19.713
			c-0.714-0.544,2.85,2.249,4.106,3.235c0.178,0.14,0.31,0.245,0.376,0.297c2.169,1.724,4.328,3.463,6.474,5.215
			c4.293,3.506,8.54,7.068,12.739,10.686c8.398,7.237,16.606,14.697,24.611,22.368c15.983,15.316,31.802,30.93,46.67,47.339
			c7.409,8.176,15.025,16.161,22.354,24.412c3.65,4.109,7.127,8.38,10.795,12.469c3.554,3.96,6.569,6.91,10.745,8.683
			c1.674,0.812,3.03,1.768,4.569,2.849c7.718,5.424,17.045-3.506,15.079-11.592c-0.018-0.077-0.144-0.437-0.286-0.819
			c0.094-0.859-0.004-3.109-0.004-3.297c0-3.313-1.464-6.199-2.888-9.089c-2.144-4.349-4.653-8.452-7.235-12.549
			c-4.587-7.277-9.328-14.459-14.216-21.537c-10.716-15.52-23.18-30.03-35.757-44.065c-24.168-26.967-52.748-50.456-81.742-72.02
			c-4.915-3.654-9.914-7.151-14.996-10.534c-3.262-2.171-6.557-4.296-9.89-6.382c-0.855-0.535-1.705-1.068-2.553-1.596
			C1240.457,1095.678,1230.631,1104.603,1219.719,1111.884z"/>
		<path style="fill:#A74334;" d="M1025.86,1109.339c-3.299,4.075-6.23,8.545-9.28,12.789c-6.687,9.304-13.222,18.717-19.605,28.232
			c-12.571,18.741-24.342,37.867-35.24,57.629c-5.237,9.497-10.324,19.076-15.265,28.728
			c-12.602,24.618-24.244,49.722-34.963,75.219c-2.593,6.167-5.134,12.357-7.619,18.568c-4.659,11.644-9.156,23.362-13.351,35.18
			c-2.689,7.57-5.552,15.091-7.654,22.791c-1.383,5.066-2.438,10.208-2.894,15.492c-1.09,12.629,16.823,15.811,22.738,6.158
			c6.002-9.798,9.081-21.01,13.104-31.743c3.888-10.378,7.834-20.732,11.974-31.013c3.365-8.357,6.854-16.664,10.454-24.923
			c3.664-8.406,7.443-16.761,11.33-25.066c1.308-2.796,2.628-5.589,3.961-8.374c6.687-13.977,13.715-27.778,21.013-41.435
			c13.396-25.072,27.698-49.66,42.464-73.957c6.514-10.717,13.217-21.319,20.106-31.798c3.241-4.929,6.522-9.832,9.845-14.706
			c1.933-2.834,3.312-5.86,4.479-8.984c-0.462-0.137-0.923-0.274-1.385-0.413C1041.758,1115.224,1033.65,1112.446,1025.86,1109.339z
			"/>
		<path style="fill:#A74334;" d="M1230.274,876.827c14.42-29.165,30.416-57.553,47.897-84.994
			c3.808-5.977,7.684-11.909,11.631-17.793c4.132-6.159,8.334-12.271,12.534-18.383c1.256-1.827,2.51-3.653,3.762-5.482
			c2.396-3.498,5.004-7.138,7.01-10.925c3.482-6.576,5.148-13.597,0.726-21.1c-0.399-0.678-0.845-1.291-1.332-1.844
			c-2.748-3.133-6.782-4.337-11.069-4.26c-0.101,0.002-0.199,0.008-0.301,0.011c-8.33,0.267-13.759,5.236-18.497,11.581
			c-5.983,8.011-11.671,16.259-17.098,24.652c-4.501,6.96-8.904,13.982-13.209,21.063c-16.096,26.467-30.827,53.764-44.124,81.742
			c-8.175,17.204-16.013,34.65-22.936,52.415c9.243,3.733,18.179,7.935,26.639,12.581
			C1217.814,902.904,1223.87,889.778,1230.274,876.827z"/>
		<path style="fill:#A74334;" d="M743.328,1163.56c-1.48,1.544-2.249,3.357-2.457,5.207c-0.8,7.109,6.686,14.755,13.957,9.698
			c8.862-6.164,17.648-12.419,26.413-18.698c9.202-6.594,18.38-13.213,27.593-19.783c5.408-3.858,10.831-7.697,16.275-11.503
			c15.359-10.739,30.91-21.214,46.923-31.073c20.31-12.505,40.734-24.8,61.66-36.251c6.603-3.613,13.245-7.137,19.859-10.718
			c-4.146-8.583-6.982-18.042-8.258-28.478c-0.07-0.575-0.135-1.152-0.196-1.733c-4.125,2.023-8.199,4.147-12.212,6.332
			c-16.362,8.912-32.489,18.252-48.364,28.005c-26.137,16.059-51.259,33.751-75.641,52.374c-5.859,4.474-11.674,9.001-17.451,13.573
			c-12.04,9.529-23.568,19.251-34.603,29.669c-1.735,1.637-3.457,3.292-5.167,4.966
			C748.85,1157.896,746.072,1160.697,743.328,1163.56z"/>
		<path style="fill:#A74334;" d="M1163.694,1379.507c-1.955-9.526-2.893-19.179-4.824-28.678c-0.117-0.576-0.236-1.151-0.361-1.724
			c-2.263-10.421-4.638-20.784-7.026-31.178c-4.599-20.012-8.881-40.208-12.23-60.469c-6.505-39.361-8.586-79.585-8.209-119.461
			c0.007-0.736,0.013-1.471,0.022-2.206c0.008-0.754,0.023-1.509,0.034-2.263c-11.606-0.594-23.299-2.133-34.918-4.31
			c-0.05,1.051-0.099,2.101-0.144,3.152c-0.892,20.972-0.591,41.805,1.253,62.717c3.719,42.181,10.587,84.998,24.083,125.224
			c3.764,11.217,7.789,22.247,12.827,32.961c5.128,10.906,11.782,20.796,18.166,31.011c0.551,0.88,1.207,1.547,1.926,2.027
			c0.993,0.664,2.102,0.966,3.203,0.963C1161.099,1387.263,1164.615,1383.991,1163.694,1379.507z"/>
		<path style="fill:#A74334;" d="M1002.651,902.272c-3.601-6.591-7.253-13.174-11.233-19.511
			c-12.096-19.265-25.943-37.695-40.063-55.499c-6.967-8.784-14.058-17.47-21.27-26.055c-6.834-8.136-13.777-16.181-20.827-24.133
			c-7.247-8.173-14.605-16.248-22.074-24.22c-6.699-7.15-13.262-16.121-22.653-18.201c-0.743-0.165-1.503-0.285-2.282-0.359
			c-1.703-0.161-3.497-0.098-5.398,0.238c-3.553,0.628-6.866,4.244-7.663,7.662c-3.101,13.318,9.214,22.657,17.139,31.517
			c1.627,1.82,3.248,3.645,4.865,5.475c5.376,6.085,10.692,12.223,15.944,18.416c8.126,9.583,16.112,19.288,23.929,29.126
			c5.193,6.534,10.31,13.126,15.345,19.78c12.974,17.152,25.713,34.469,38.578,51.7c5.208,6.975,10.786,13.682,16.191,20.513
			c3.107-3.017,6.396-5.867,9.861-8.543C994.713,907.344,998.587,904.707,1002.651,902.272z"/>
		<path style="fill:#EE725E;" d="M953.551,1050.437c6.134,12.697,15.138,23.478,26.223,32.671
			c12.946,10.737,28.728,19.307,46.086,26.231c7.79,3.107,15.899,5.884,24.21,8.375c0.462,0.139,0.923,0.276,1.385,0.413
			c14.548,4.327,29.575,8.251,44.727,11.09c11.619,2.177,23.312,3.716,34.918,4.31c0.134,0.006,0.268,0.013,0.402,0.019
			c8.583,0.423,17.121,0.327,25.546-0.413c16.513-1.45,32.597-5.372,47.767-12.703c5.171-2.5,10.14-5.369,14.905-8.547
			c10.912-7.281,20.738-16.205,29.385-26.164c3.889-4.479,7.543-9.165,10.946-14.005c0.891-1.269,1.75-2.531,2.584-3.791
			c20.49-30.951,23.526-59.156,14.927-83.71c-1.365-3.894-3.022-7.696-4.947-11.404c-6.738-12.967-16.771-24.764-29.107-35.239
			c-5.786-4.913-12.078-9.535-18.775-13.849c-4.13-2.662-8.414-5.206-12.828-7.63c-8.46-4.646-17.397-8.849-26.639-12.581
			c-4.217-1.703-8.497-3.309-12.823-4.813c-20.437-7.106-41.935-11.974-62.8-14.343c-11.722-1.331-23.244-1.872-34.264-1.578
			c-8.252,0.221-16.223,0.91-23.786,2.087c-6.353,0.989-12.421,2.321-18.125,4.011c-11.229,3.327-21.524,7.83-30.817,13.398
			c-4.063,2.435-7.938,5.072-11.611,7.907c-3.465,2.676-6.754,5.526-9.861,8.543c-18.231,17.704-30.186,41.162-34.796,68.907
			c-0.179,1.076-0.351,2.156-0.508,3.245c-0.81,5.632-1.246,11.038-1.334,16.231c-0.077,4.536,0.116,8.906,0.556,13.121
			c0.061,0.581,0.126,1.158,0.196,1.733C946.569,1032.395,949.405,1041.854,953.551,1050.437z"/>
	</g>
</g>
</svg>
